<svg xmlns="http://www.w3.org/2000/svg" xmlns:xlink="http://www.w3.org/1999/xlink" width="180" zoomAndPan="magnify" viewBox="0 0 135 33.749998" height="45" preserveAspectRatio="xMidYMid meet" version="1.0"><defs><g/><clipPath id="0c9e188564"><path d="M 2 1.433594 L 62.183594 1.433594 L 62.183594 22 L 2 22 Z M 2 1.433594 " clip-rule="nonzero"/></clipPath><clipPath id="998cbab6f2"><path d="M 1.953125 24.164062 L 62.183594 24.164062 L 62.183594 31.933594 L 1.953125 31.933594 Z M 1.953125 24.164062 " clip-rule="nonzero"/></clipPath></defs><g fill="#ffffff" fill-opacity="1"><g transform="translate(65.365402, 15.083531)"><g><path d="M 6.59375 -1.75 L 6.71875 -1.59375 L 6.578125 0 L 0.921875 0 L 1.046875 -2.53125 L 0.921875 -8.5625 L 6.65625 -8.5625 L 6.78125 -8.390625 L 6.625 -6.8125 L 4.546875 -6.890625 L 3.09375 -6.875 L 3.0625 -5.15625 L 4.453125 -5.15625 L 5.84375 -5.203125 L 5.96875 -5.046875 L 5.84375 -3.453125 L 4.3125 -3.484375 L 3.03125 -3.484375 L 3.015625 -2.75 L 3.03125 -1.6875 L 4.4375 -1.671875 Z M 6.59375 -1.75 "/></g></g></g><g fill="#ffffff" fill-opacity="1"><g transform="translate(72.68899, 15.083531)"><g><path d="M 5.609375 -4.5 L 8.296875 0 L 5.71875 0 L 5.296875 -0.921875 L 4.15625 -2.8125 L 2.84375 -0.828125 L 2.4375 0 L 0.234375 0 L 2.890625 -4.171875 L 0.21875 -8.5625 L 2.796875 -8.5625 L 3.21875 -7.609375 L 4.328125 -5.828125 L 5.484375 -7.703125 L 5.875 -8.5625 L 8.125 -8.5625 Z M 5.609375 -4.5 "/></g></g></g><g fill="#ffffff" fill-opacity="1"><g transform="translate(81.551591, 15.083531)"><g><path d="M 4.53125 -8.5625 C 5.457031 -8.5625 6.171875 -8.332031 6.671875 -7.875 C 7.171875 -7.414062 7.421875 -6.765625 7.421875 -5.921875 C 7.421875 -5.253906 7.269531 -4.671875 6.96875 -4.171875 C 6.664062 -3.671875 6.238281 -3.28125 5.6875 -3 C 5.144531 -2.726562 4.507812 -2.59375 3.78125 -2.59375 L 3.015625 -2.59375 L 3.09375 0 L 0.921875 0 L 1.046875 -2.53125 L 0.921875 -8.5625 Z M 4.171875 -4.15625 C 4.503906 -4.269531 4.75 -4.453125 4.90625 -4.703125 C 5.070312 -4.953125 5.15625 -5.285156 5.15625 -5.703125 C 5.15625 -6.148438 5.046875 -6.476562 4.828125 -6.6875 C 4.617188 -6.894531 4.285156 -7.007812 3.828125 -7.03125 L 3.109375 -6.984375 L 3.03125 -4.203125 Z M 4.171875 -4.15625 "/></g></g></g><g fill="#ffffff" fill-opacity="1"><g transform="translate(89.512011, 15.083531)"><g><path d="M 6.59375 -1.75 L 6.71875 -1.59375 L 6.578125 0 L 0.921875 0 L 1.046875 -2.53125 L 0.921875 -8.5625 L 6.65625 -8.5625 L 6.78125 -8.390625 L 6.625 -6.8125 L 4.546875 -6.890625 L 3.09375 -6.875 L 3.0625 -5.15625 L 4.453125 -5.15625 L 5.84375 -5.203125 L 5.96875 -5.046875 L 5.84375 -3.453125 L 4.3125 -3.484375 L 3.03125 -3.484375 L 3.015625 -2.75 L 3.03125 -1.6875 L 4.4375 -1.671875 Z M 6.59375 -1.75 "/></g></g></g><g fill="#ffffff" fill-opacity="1"><g transform="translate(96.835599, 15.083531)"><g><path d="M 5.90625 -3.375 C 6.632812 -2.238281 7.296875 -1.28125 7.890625 -0.5 L 7.859375 -0.265625 C 7.191406 -0.046875 6.484375 0.0859375 5.734375 0.140625 L 5.515625 -0.03125 C 4.984375 -1.019531 4.523438 -1.925781 4.140625 -2.75 L 3.015625 -2.75 L 3.09375 0 L 0.921875 0 L 1.046875 -2.53125 L 0.921875 -8.5625 L 4.53125 -8.5625 C 5.46875 -8.5625 6.179688 -8.335938 6.671875 -7.890625 C 7.171875 -7.453125 7.421875 -6.816406 7.421875 -5.984375 C 7.421875 -5.460938 7.285156 -4.972656 7.015625 -4.515625 C 6.753906 -4.066406 6.382812 -3.6875 5.90625 -3.375 Z M 3.046875 -4.359375 L 4.203125 -4.3125 C 4.535156 -4.4375 4.773438 -4.617188 4.921875 -4.859375 C 5.078125 -5.097656 5.15625 -5.40625 5.15625 -5.78125 C 5.15625 -6.195312 5.046875 -6.503906 4.828125 -6.703125 C 4.617188 -6.898438 4.285156 -7.007812 3.828125 -7.03125 L 3.109375 -6.984375 Z M 3.046875 -4.359375 "/></g></g></g><g fill="#ffffff" fill-opacity="1"><g transform="translate(105.286913, 15.083531)"><g><path d="M 6.625 -8.390625 L 6.5 -6.8125 L 4.828125 -6.890625 L 4.453125 -6.890625 L 4.390625 -2.75 L 4.46875 0 L 2.328125 0 L 2.4375 -2.53125 L 2.375 -6.890625 L 1.984375 -6.890625 L 0.296875 -6.8125 L 0.15625 -6.984375 L 0.296875 -8.5625 L 6.5 -8.5625 Z M 6.625 -8.390625 "/></g></g></g><g fill="#ffffff" fill-opacity="1"><g transform="translate(112.451291, 15.083531)"><g><path d="M 6.59375 -1.75 L 6.71875 -1.59375 L 6.578125 0 L 0.921875 0 L 1.046875 -2.53125 L 0.921875 -8.5625 L 6.65625 -8.5625 L 6.78125 -8.390625 L 6.625 -6.8125 L 4.546875 -6.890625 L 3.09375 -6.875 L 3.0625 -5.15625 L 4.453125 -5.15625 L 5.84375 -5.203125 L 5.96875 -5.046875 L 5.84375 -3.453125 L 4.3125 -3.484375 L 3.03125 -3.484375 L 3.015625 -2.75 L 3.03125 -1.6875 L 4.4375 -1.671875 Z M 6.59375 -1.75 "/></g></g></g><g fill="#ffffff" fill-opacity="1"><g transform="translate(65.791328, 28.141282)"><g><path d="M 0.125 -8.796875 L 2.734375 -8.796875 L 4.796875 -2.5625 L 6.84375 -8.796875 L 9.453125 -8.796875 L 6.296875 0 L 3.296875 0 Z M 0.125 -8.796875 "/></g></g></g><g fill="#ffffff" fill-opacity="1"><g transform="translate(76.123233, 28.141282)"><g><path d="M 5.15625 -6.8125 C 4.488281 -6.8125 3.953125 -6.601562 3.546875 -6.1875 C 3.140625 -5.769531 2.9375 -5.175781 2.9375 -4.40625 C 2.9375 -3.632812 3.140625 -3.035156 3.546875 -2.609375 C 3.953125 -2.191406 4.488281 -1.984375 5.15625 -1.984375 C 5.820312 -1.984375 6.359375 -2.191406 6.765625 -2.609375 C 7.171875 -3.035156 7.375 -3.632812 7.375 -4.40625 C 7.375 -5.175781 7.171875 -5.769531 6.765625 -6.1875 C 6.359375 -6.601562 5.820312 -6.8125 5.15625 -6.8125 Z M 5.15625 -9 C 6.070312 -9 6.878906 -8.804688 7.578125 -8.421875 C 8.273438 -8.046875 8.820312 -7.515625 9.21875 -6.828125 C 9.625 -6.140625 9.828125 -5.332031 9.828125 -4.40625 C 9.828125 -3.488281 9.625 -2.679688 9.21875 -1.984375 C 8.820312 -1.296875 8.273438 -0.757812 7.578125 -0.375 C 6.878906 0.0078125 6.070312 0.203125 5.15625 0.203125 C 4.25 0.203125 3.441406 0.0078125 2.734375 -0.375 C 2.035156 -0.757812 1.488281 -1.296875 1.09375 -1.984375 C 0.695312 -2.679688 0.5 -3.488281 0.5 -4.40625 C 0.5 -5.332031 0.695312 -6.140625 1.09375 -6.828125 C 1.488281 -7.515625 2.035156 -8.046875 2.734375 -8.421875 C 3.441406 -8.804688 4.25 -9 5.15625 -9 Z M 5.15625 -9 "/></g></g></g><g fill="#ffffff" fill-opacity="1"><g transform="translate(87.179122, 28.141282)"><g><path d="M 0.796875 0 L 0.796875 -8.796875 L 5.046875 -8.796875 C 5.929688 -8.796875 6.613281 -8.546875 7.09375 -8.046875 C 7.582031 -7.554688 7.828125 -6.894531 7.828125 -6.0625 C 7.828125 -5.03125 7.476562 -4.273438 6.78125 -3.796875 L 8.359375 0 L 5.796875 0 L 4.421875 -3.3125 L 3.25 -3.3125 L 3.25 0 Z M 3.25 -5.25 L 4.515625 -5.25 C 5.085938 -5.25 5.375 -5.519531 5.375 -6.0625 C 5.375 -6.613281 5.085938 -6.890625 4.515625 -6.890625 L 3.25 -6.890625 Z M 3.25 -5.25 "/></g></g></g><g fill="#ffffff" fill-opacity="1"><g transform="translate(96.425062, 28.141282)"><g/></g></g><g fill="#ffffff" fill-opacity="1"><g transform="translate(100.210979, 28.141282)"><g><path d="M 5.15625 -6.8125 C 4.488281 -6.8125 3.953125 -6.601562 3.546875 -6.1875 C 3.140625 -5.769531 2.9375 -5.175781 2.9375 -4.40625 C 2.9375 -3.632812 3.140625 -3.035156 3.546875 -2.609375 C 3.953125 -2.191406 4.488281 -1.984375 5.15625 -1.984375 C 5.820312 -1.984375 6.359375 -2.191406 6.765625 -2.609375 C 7.171875 -3.035156 7.375 -3.632812 7.375 -4.40625 C 7.375 -5.175781 7.171875 -5.769531 6.765625 -6.1875 C 6.359375 -6.601562 5.820312 -6.8125 5.15625 -6.8125 Z M 5.15625 -9 C 6.070312 -9 6.878906 -8.804688 7.578125 -8.421875 C 8.273438 -8.046875 8.820312 -7.515625 9.21875 -6.828125 C 9.625 -6.140625 9.828125 -5.332031 9.828125 -4.40625 C 9.828125 -3.488281 9.625 -2.679688 9.21875 -1.984375 C 8.820312 -1.296875 8.273438 -0.757812 7.578125 -0.375 C 6.878906 0.0078125 6.070312 0.203125 5.15625 0.203125 C 4.25 0.203125 3.441406 0.0078125 2.734375 -0.375 C 2.035156 -0.757812 1.488281 -1.296875 1.09375 -1.984375 C 0.695312 -2.679688 0.5 -3.488281 0.5 -4.40625 C 0.5 -5.332031 0.695312 -6.140625 1.09375 -6.828125 C 1.488281 -7.515625 2.035156 -8.046875 2.734375 -8.421875 C 3.441406 -8.804688 4.25 -9 5.15625 -9 Z M 5.15625 -9 "/></g></g></g><g fill="#ffffff" fill-opacity="1"><g transform="translate(111.266866, 28.141282)"><g><path d="M 0.796875 0 L 0.796875 -8.796875 L 5.046875 -8.796875 C 5.929688 -8.796875 6.613281 -8.546875 7.09375 -8.046875 C 7.582031 -7.554688 7.828125 -6.894531 7.828125 -6.0625 C 7.828125 -5.03125 7.476562 -4.273438 6.78125 -3.796875 L 8.359375 0 L 5.796875 0 L 4.421875 -3.3125 L 3.25 -3.3125 L 3.25 0 Z M 3.25 -5.25 L 4.515625 -5.25 C 5.085938 -5.25 5.375 -5.519531 5.375 -6.0625 C 5.375 -6.613281 5.085938 -6.890625 4.515625 -6.890625 L 3.25 -6.890625 Z M 3.25 -5.25 "/></g></g></g><g fill="#ffffff" fill-opacity="1"><g transform="translate(120.512807, 28.141282)"><g><path d="M 0.125 -8.796875 L 7.859375 -8.796875 L 7.859375 -6.609375 L 5.21875 -6.609375 L 5.21875 0 L 2.765625 0 L 2.765625 -6.609375 L 0.125 -6.609375 Z M 0.125 -8.796875 "/></g></g></g><path fill="#ffffff" d="M 50.585938 10.679688 L 50.890625 10.824219 C 51.617188 11.164062 52.136719 11.703125 52.449219 12.441406 L 52.699219 13.027344 C 53.988281 11.34375 51.613281 4.6875 51.613281 4.6875 L 50.648438 4.6875 L 50.648438 7.96875 C 50.648438 7.96875 52.40625 8.941406 50.859375 10.457031 Z M 50.585938 10.679688 " fill-opacity="1" fill-rule="nonzero"/><path fill="#ffffff" d="M 10.894531 9.390625 L 13.195312 8.460938 L 13.527344 7.808594 L 12.679688 5.375 L 12.273438 4.300781 C 12.273438 4.300781 10.253906 4.882812 10.652344 9.484375 Z M 10.894531 9.390625 " fill-opacity="1" fill-rule="nonzero"/><g clip-path="url(#0c9e188564)"><path fill="#ffffff" d="M 62.261719 21.113281 L 62.230469 20.816406 C 60.691406 20.757812 58.285156 20.707031 55.234375 20.664062 L 55.230469 20.652344 C 55.167969 20.433594 55.210938 20.238281 55.359375 20.066406 C 55.671875 19.710938 55.8125 19.253906 55.875 18.890625 C 55.898438 18.730469 55.859375 18.589844 55.75 18.472656 C 55.640625 18.355469 55.503906 18.300781 55.34375 18.3125 L 54.867188 18.347656 C 54.632812 18.367188 54.414062 18.308594 54.214844 18.179688 C 54.015625 18.050781 53.875 17.875 53.796875 17.652344 L 53.480469 16.757812 L 52.53125 17.222656 L 52.53125 15.207031 C 52.53125 15.132812 52.535156 15.054688 52.546875 14.980469 C 52.617188 14.46875 52.824219 12.148438 50.792969 11.179688 C 50.433594 11.011719 50.125 10.777344 49.863281 10.480469 C 49.53125 10.101562 49.242188 9.566406 49.414062 8.953125 C 49.414062 8.953125 49.535156 8.324219 50.386719 7.792969 L 50.386719 4.6875 L 49.214844 4.6875 C 49.214844 4.6875 47.546875 11.273438 48.320312 13.898438 C 48.386719 14.128906 48.496094 14.335938 48.652344 14.519531 C 49.105469 15.058594 49.683594 15.351562 50.386719 15.398438 L 50.992188 17.976562 L 50.386719 18.269531 L 51.171875 20.617188 C 50.449219 20.609375 49.703125 20.601562 48.933594 20.597656 L 49.707031 18.28125 L 49.035156 17.953125 L 49.558594 15.597656 L 49.089844 15.433594 C 48.8125 15.335938 48.578125 15.175781 48.386719 14.953125 L 47.980469 14.484375 L 47.410156 17.160156 L 46.613281 16.769531 L 46.292969 17.660156 C 46.214844 17.882812 46.074219 18.058594 45.878906 18.1875 C 45.679688 18.320312 45.460938 18.375 45.222656 18.359375 L 44.746094 18.320312 C 44.585938 18.308594 44.453125 18.363281 44.34375 18.480469 C 44.234375 18.601562 44.191406 18.738281 44.21875 18.898438 C 44.28125 19.261719 44.417969 19.722656 44.730469 20.074219 C 44.855469 20.21875 44.902344 20.382812 44.878906 20.566406 C 42.703125 20.554688 40.410156 20.542969 38.015625 20.539062 L 37.921875 18.714844 L 37.359375 7.597656 L 38.050781 7.597656 C 38.128906 7.597656 38.191406 7.566406 38.246094 7.511719 C 38.300781 7.457031 38.324219 7.390625 38.320312 7.3125 C 38.273438 6.539062 38.234375 4.460938 39.136719 4.4375 C 40.246094 4.414062 41.875 6.199219 41.875 6.199219 L 42.855469 7.238281 C 42.957031 7.34375 43.078125 7.402344 43.222656 7.414062 C 43.367188 7.421875 43.496094 7.382812 43.609375 7.292969 C 43.722656 7.203125 43.792969 7.085938 43.8125 6.941406 C 43.835938 6.800781 43.808594 6.667969 43.730469 6.546875 C 43.011719 5.46875 41.011719 2.765625 38.445312 1.765625 C 37.894531 1.554688 37.328125 1.449219 36.738281 1.453125 L 33.480469 1.453125 C 33.34375 1.453125 33.277344 1.519531 33.277344 1.65625 L 33.277344 2 L 28.070312 1.457031 C 27.890625 1.4375 27.738281 1.488281 27.605469 1.609375 C 27.472656 1.726562 27.40625 1.875 27.40625 2.054688 L 27.40625 4.679688 C 27.40625 4.859375 27.472656 5.003906 27.601562 5.125 C 27.734375 5.242188 27.886719 5.292969 28.0625 5.277344 L 33.277344 4.777344 C 33.277344 4.777344 33.902344 6.148438 33.878906 7.441406 C 33.878906 7.546875 33.929688 7.597656 34.035156 7.597656 L 34.832031 7.597656 L 34.269531 18.714844 L 34.234375 20.535156 L 32.40625 20.535156 C 29.65625 20.535156 26.984375 20.539062 24.4375 20.546875 L 24.472656 9.789062 L 25.074219 7.949219 L 24.441406 2.882812 L 22.644531 2.882812 L 22.007812 7.949219 L 22.613281 9.789062 L 22.613281 20.554688 C 19.933594 20.566406 17.414062 20.582031 15.101562 20.605469 L 15.101562 19.285156 C 15.101562 19.148438 15.054688 19.027344 14.964844 18.925781 C 14.871094 18.824219 14.757812 18.769531 14.621094 18.757812 C 14.539062 18.75 14.535156 18.726562 14.535156 18.726562 C 14.476562 17.851562 14.59375 16.878906 14.738281 16.085938 C 14.898438 15.1875 15.304688 14.421875 15.953125 13.78125 C 16.746094 12.996094 17.835938 11.582031 18.015625 9.621094 L 13.617188 11.742188 L 13.988281 12.726562 C 14.054688 12.902344 14.054688 13.074219 13.984375 13.246094 C 13.910156 13.417969 13.789062 13.542969 13.621094 13.617188 L 13.535156 13.652344 L 13.210938 10.875 C 13.265625 10.9375 13.3125 11.007812 13.339844 11.085938 L 13.457031 11.375 L 17.945312 9.210938 L 18.039062 9.160156 C 18.042969 8.90625 18.03125 8.652344 18.003906 8.398438 C 17.597656 4.480469 13.246094 4.015625 13.246094 4.015625 L 14.550781 7.527344 L 13.300781 9.007812 L 8.128906 11.074219 C 8.03125 11.113281 7.96875 11.183594 7.945312 11.289062 C 7.917969 11.394531 7.941406 11.484375 8.015625 11.566406 C 8.480469 12.085938 8.890625 12.648438 9.246094 13.253906 L 9.253906 13.25 L 10.804688 12.453125 L 10.691406 12.191406 C 10.605469 12.011719 10.601562 11.832031 10.675781 11.648438 C 10.746094 11.460938 10.875 11.332031 11.058594 11.257812 L 11.136719 11.226562 L 11.4375 13.792969 L 10.980469 12.8125 L 9.441406 13.605469 C 10.28125 15.15625 11.027344 17.429688 10.644531 20.285156 L 10.210938 20.460938 C 10.109375 20.5 10.027344 20.570312 9.964844 20.660156 C 6.359375 20.710938 3.617188 20.769531 2.070312 20.839844 L 2.007812 21.089844 C 5.957031 21.269531 18.074219 21.398438 32.410156 21.398438 C 46.132812 21.398438 57.820312 21.277344 62.261719 21.113281 Z M 12.84375 10.664062 L 12.851562 10.746094 L 13.195312 13.683594 L 13.207031 13.796875 L 12.972656 13.898438 L 12.621094 10.824219 L 12.601562 10.652344 C 12.679688 10.640625 12.761719 10.644531 12.84375 10.664062 Z M 12.269531 10.765625 L 12.628906 13.898438 L 12.640625 14.042969 L 12.410156 14.144531 L 12.035156 10.910156 L 12.027344 10.863281 Z M 11.699219 10.996094 L 12.074219 14.222656 C 11.988281 14.222656 11.90625 14.207031 11.824219 14.175781 L 11.808594 14.046875 L 11.472656 11.140625 L 11.464844 11.09375 Z M 11.699219 10.996094 " fill-opacity="1" fill-rule="nonzero"/></g><g clip-path="url(#998cbab6f2)"><path fill="#ffffff" d="M 62.179688 24.496094 C 57.71875 24.332031 46.050781 24.214844 32.355469 24.214844 C 18.097656 24.214844 6.03125 24.339844 2.015625 24.515625 L 1.953125 24.769531 C 3.484375 24.835938 6.238281 24.898438 9.875 24.949219 L 9.875 28.097656 C 9.875 28.347656 9.992188 28.511719 10.226562 28.597656 L 10.226562 29.636719 C 10.226562 29.910156 10.28125 30.171875 10.386719 30.425781 C 10.488281 30.679688 10.640625 30.902344 10.832031 31.09375 C 11.023438 31.289062 11.25 31.4375 11.5 31.542969 C 11.753906 31.644531 12.015625 31.699219 12.289062 31.699219 L 12.488281 31.699219 C 12.761719 31.699219 13.027344 31.644531 13.277344 31.542969 C 13.53125 31.4375 13.753906 31.289062 13.945312 31.09375 C 14.140625 30.902344 14.289062 30.679688 14.394531 30.425781 C 14.5 30.171875 14.550781 29.910156 14.550781 29.636719 L 14.550781 26.921875 L 14.777344 26.828125 C 14.996094 26.738281 15.101562 26.574219 15.101562 26.339844 L 15.101562 25.003906 C 16.765625 25.019531 18.535156 25.03125 20.390625 25.042969 L 20.390625 29.5625 C 20.390625 30.9375 21.800781 32.050781 23.542969 32.050781 C 25.285156 32.050781 26.695312 30.9375 26.695312 29.5625 L 26.695312 25.066406 C 28.53125 25.074219 30.425781 25.074219 32.355469 25.074219 L 33.996094 25.074219 L 33.894531 30.410156 C 33.890625 30.605469 33.925781 30.792969 33.996094 30.976562 C 34.070312 31.15625 34.171875 31.320312 34.308594 31.457031 C 34.449219 31.597656 34.605469 31.707031 34.785156 31.78125 C 34.96875 31.859375 35.15625 31.894531 35.351562 31.894531 L 37.496094 31.894531 C 37.695312 31.894531 37.890625 31.855469 38.074219 31.777344 C 38.257812 31.699219 38.417969 31.585938 38.554688 31.441406 C 38.691406 31.296875 38.796875 31.128906 38.863281 30.941406 C 38.933594 30.753906 38.964844 30.5625 38.953125 30.363281 L 38.679688 25.066406 C 40.617188 25.0625 42.488281 25.054688 44.28125 25.046875 C 44.378906 25.828125 44.503906 26.648438 44.667969 27.5 C 44.667969 27.5 45.027344 30.28125 46.339844 31.253906 C 46.996094 31.738281 47.402344 31.171875 47.644531 30.488281 C 47.90625 29.75 47.957031 28.957031 47.832031 28.183594 C 47.710938 27.449219 47.527344 26.285156 47.351562 25.027344 C 49.425781 25.011719 51.363281 24.992188 53.128906 24.972656 C 52.953125 26.253906 52.765625 27.4375 52.640625 28.183594 C 52.515625 28.957031 52.566406 29.75 52.828125 30.488281 C 53.070312 31.171875 53.476562 31.738281 54.136719 31.253906 C 55.445312 30.277344 55.804688 27.5 55.804688 27.5 C 55.976562 26.605469 56.109375 25.75 56.207031 24.929688 C 58.792969 24.890625 60.84375 24.84375 62.207031 24.792969 Z M 12.390625 30.84375 C 12.128906 30.84375 11.902344 30.75 11.71875 30.566406 C 11.53125 30.378906 11.441406 30.15625 11.441406 29.894531 C 11.441406 29.632812 11.53125 29.40625 11.71875 29.222656 C 11.902344 29.035156 12.128906 28.945312 12.390625 28.945312 C 12.652344 28.945312 12.875 29.035156 13.0625 29.222656 C 13.246094 29.40625 13.339844 29.632812 13.339844 29.894531 C 13.339844 30.15625 13.246094 30.378906 13.0625 30.566406 C 12.875 30.75 12.652344 30.84375 12.390625 30.84375 Z M 12.390625 30.84375 " fill-opacity="1" fill-rule="nonzero"/></g></svg>